<svg width="58" height="60" viewBox="0 0 58 60" fill="none" xmlns="http://www.w3.org/2000/svg">
<path fill-rule="evenodd" clip-rule="evenodd" d="M19.83 22.1193C14.5824 22.1415 11.3053 22.5619 7.17149 24.9514C-6.64355 33.0048 2.80208 36.7218 8.19959 33.6686C10.4914 32.3632 10.984 31.1242 14.5181 30.2835C28.4831 27.0089 35.9368 44.0231 27.6049 50.196C20.1512 55.7494 10.727 46.7888 18.8233 46.2799C19.7442 46.2135 24.3706 46.7445 24.9275 41.5673C25.4201 37.0537 21.265 34.6421 17.1098 34.9961C9.39903 35.6599 4.68692 45.9259 9.76314 53.4042C16.7028 63.6038 31.6744 61.5019 36.8792 50.3509C38.914 45.9702 38.25 42.6956 38.25 37.7618C50.5871 38.3148 63.781 27.0089 55.3207 25.6151C55.2349 25.593 52.5362 25.5709 52.4291 25.593C47.9098 26.0134 46.4961 31.0357 38.2285 29.9516C32.1456 29.1552 26.5767 23.8893 26.8339 16.9863C27.1123 9.79564 35.5512 4.77331 40.9059 9.50808C41.7626 10.2825 43.0263 11.986 41.6555 13.3578C40.5847 14.4199 38.9996 13.2693 36.8149 13.7782C30.0466 15.3491 32.2528 27.2303 42.3195 24.7302C50.8227 22.606 54.0783 8.49032 43.4548 2.11831C37.0291 -1.73144 30.3465 0.171316 25.4416 3.79982C21.0722 7.03007 18.6091 14.0659 19.83 22.1193Z" fill="#10B7C0"/>
</svg>
