<svg width="90" height="17" viewBox="0 0 90 17" fill="none" xmlns="http://www.w3.org/2000/svg">
<path fill-rule="evenodd" clip-rule="evenodd" d="M6.70872 6.26715C5.17063 6.27342 4.2101 6.39254 2.99847 7.06955C-1.05076 9.35137 1.71778 10.4045 3.29981 9.53944C3.97154 9.16958 4.11593 8.81853 5.15179 8.58033C9.24497 7.65253 11.4297 12.4732 8.98758 14.2222C6.80288 15.7956 4.0406 13.2568 6.41365 13.1126C6.68358 13.0938 8.0396 13.2443 8.20283 11.7774C8.34722 10.4986 7.12934 9.81527 5.91142 9.91558C3.65137 10.1036 2.27024 13.0123 3.7581 15.1312C5.79212 18.0211 10.1804 17.4255 11.7059 14.2661C12.3023 13.0249 12.1077 12.0971 12.1077 10.6992C15.7237 10.8559 19.5909 7.65253 17.1112 7.25762C17.086 7.25135 16.295 7.24508 16.2636 7.25135C14.939 7.37047 14.5247 8.79344 12.1014 8.48629C10.3185 8.26063 8.68622 6.76864 8.76158 4.81278C8.8432 2.77543 11.3167 1.35244 12.8861 2.69396C13.1372 2.91337 13.5076 3.39604 13.1059 3.78472C12.792 4.08563 12.3274 3.75963 11.6871 3.90384C9.70323 4.34892 10.3499 7.71525 13.3005 7.00688C15.7928 6.40504 16.747 2.40559 13.6332 0.600188C11.7498 -0.490574 9.79114 0.0485396 8.35351 1.07662C7.07282 1.99185 6.35087 3.98533 6.70872 6.26715Z" fill="#10B7C0"/>
<path d="M27.0914 14.8204C28.0033 14.8204 28.2863 14.7305 28.2863 14.0838V10.1317H30.2516C30.7548 10.1317 30.8334 9.91617 30.8334 8.94611C30.8334 7.97605 30.7548 7.77844 30.2516 7.77844H28.2863V5.94611H31.3051C31.7453 5.94611 31.8868 5.73054 31.8868 4.76048C31.8868 3.79042 31.7453 3.55689 31.3051 3.55689H26.5568C26.0852 3.55689 25.8965 3.64671 25.8965 4.22156V14.0838C25.8965 14.7305 26.1952 14.8204 27.0914 14.8204ZM35.383 15C37.9929 15 38.9677 14.2275 38.9677 10.2575C38.9677 6.48503 38.103 5.76647 35.6346 5.76647C33.0403 5.76647 32.0498 6.46707 32.0498 10.4371C32.0498 14.2096 32.9145 15 35.383 15ZM35.4616 12.7365C34.6755 12.7365 34.4711 12.4311 34.4711 10.2934C34.4711 8.35329 34.5969 8.02994 35.5559 8.02994C36.3421 8.02994 36.5465 8.26347 36.5465 10.3832C36.5465 12.3413 36.4207 12.7365 35.4616 12.7365ZM41.4642 14.8204C42.3761 14.8204 42.6591 14.7305 42.6591 14.0838V11.0299C42.6591 9.03593 43.1465 8.24551 44.1056 8.24551C44.5144 8.24551 44.8131 8.31737 44.9389 8.31737C45.0961 8.31737 45.3634 8.22754 45.3634 7.18563C45.3634 6.21557 45.2376 6.03593 44.9389 5.92814C44.8288 5.89222 44.5144 5.83832 44.2314 5.83832C43.3981 5.83832 42.7534 6.28743 42.3289 7.23952L42.1874 6.61078C42.0459 6.01796 41.8887 5.94611 41.0868 5.94611C40.1594 5.94611 39.9864 6.14371 39.9864 6.55689C39.9864 7.02395 40.2694 7.67066 40.2694 10.0958V14.0838C40.2694 14.7305 40.568 14.8204 41.4642 14.8204ZM48.5228 15C49.1046 15 49.6549 14.8922 50.0794 14.6766C50.3781 14.515 50.5196 14.3353 50.5196 13.509C50.5196 12.6287 50.3624 12.521 50.1266 12.521C49.9536 12.521 49.7492 12.6108 49.4505 12.6108C49.0889 12.6108 49.026 12.485 49.026 12.1078V8.11976H50.0637C50.4253 8.11976 50.5039 7.92216 50.5039 7.07784C50.5039 6.21557 50.4253 6.01796 50.0637 6.01796H49.026V4.81437C49.026 4.1497 48.743 4.07784 47.8311 4.07784C46.9191 4.07784 46.6361 4.1497 46.6361 4.81437V6.01796H46.0858C45.7242 6.01796 45.6456 6.21557 45.6456 7.07784C45.6456 7.92216 45.7242 8.11976 46.0858 8.11976H46.6361V12.6647C46.6361 14.4611 47.265 15 48.5228 15ZM54.9656 15C55.6416 15 56.8051 14.8743 57.3397 14.6587C57.6384 14.5329 57.7799 14.3353 57.7799 13.5449C57.7799 12.7545 57.6541 12.4491 57.4026 12.4491C57.1982 12.4491 56.3334 12.6826 55.1071 12.6826C54.1166 12.6826 53.8178 12.503 53.7392 11.1377H57.0724C57.7799 11.1377 57.9214 10.7246 57.9214 9.9521C57.9214 7.02395 57.4655 5.76647 54.8084 5.76647C52.4814 5.76647 51.3651 6.34132 51.3651 10.4371C51.3651 14.4431 52.7172 15 54.9656 15ZM54.7769 8.01198C55.6102 8.01198 55.7045 8.35329 55.7045 9.53892H53.7235C53.7707 8.15569 54.0222 8.01198 54.7769 8.01198ZM62.3925 14.9281C65.3169 14.9281 66.1345 14.1198 66.1345 11.7844C66.1345 9.8982 65.6314 9.21557 64.4836 8.96407C65.5371 8.65868 65.7886 7.77844 65.7886 6.37725C65.7886 3.86228 64.5937 3.46707 62.0466 3.46707C61.4177 3.46707 60.3329 3.52096 59.7669 3.59281C59.2795 3.66467 59.138 3.79042 59.138 4.43713V14.0299C59.138 14.5868 59.2166 14.7305 59.7354 14.8024C60.4901 14.8922 61.3548 14.9281 62.3925 14.9281ZM61.5278 5.7485C61.6693 5.73054 62.141 5.69461 62.424 5.69461C63.2258 5.69461 63.3516 5.94611 63.3516 6.82635C63.3516 7.79641 63.2416 8.1018 62.3139 8.1018H61.5278V5.7485ZM61.5278 9.9521H62.6598C63.5403 9.9521 63.6975 10.2575 63.6975 11.2814C63.6975 12.6647 63.556 12.8084 62.534 12.8084C62.1881 12.8084 61.7951 12.7904 61.5278 12.7545V9.9521ZM69.0664 15C70.2299 15 71.0632 14.479 71.4562 13.3293L71.6449 14.1557C71.7864 14.7305 71.9279 14.8204 72.7455 14.8204C73.6731 14.8204 73.8303 14.6228 73.8303 14.2096C73.8303 13.7245 73.5473 13.0958 73.5473 10.6707V8.37126C73.5473 6.12575 72.5568 5.76647 70.4343 5.76647C69.4123 5.76647 68.406 5.92814 67.9501 6.10778C67.6042 6.23353 67.4941 6.4491 67.4941 7.22156C67.4941 7.99401 67.6199 8.2994 67.9029 8.2994C68.2645 8.2994 69.0192 8.0479 70.1041 8.0479C70.9217 8.0479 71.2047 8.08383 71.2047 9.12575V9.50299H70.1827C67.7614 9.50299 67.0382 10.3832 67.0382 12.2874C67.0382 14.2096 67.6828 15 69.0664 15ZM69.994 12.8623C69.5066 12.8623 69.3022 12.7186 69.3022 12C69.3022 11.3174 69.4909 11.0659 70.3399 11.0659H71.2047V11.3353C71.2047 12.5569 70.5758 12.8623 69.994 12.8623ZM76.2721 14.8204C77.184 14.8204 77.467 14.7305 77.467 14.0838V10.8862C77.467 8.80239 77.7814 8.1018 78.7091 8.1018C79.2594 8.1018 79.4009 8.35329 79.4009 9.03593V14.0838C79.4009 14.7305 79.6839 14.8204 80.5958 14.8204C81.492 14.8204 81.7907 14.7305 81.7907 14.0838V8.35329C81.7907 6.48503 81.2718 5.76647 79.621 5.76647C78.3474 5.76647 77.577 6.41317 77.184 7.47305L76.9953 6.61078C76.8538 6.01796 76.6966 5.94611 75.8947 5.94611C74.9671 5.94611 74.7941 6.14371 74.7941 6.55689C74.7941 7.02395 75.0771 7.67066 75.0771 10.0958V14.0838C75.0771 14.7305 75.3759 14.8204 76.2721 14.8204ZM84.2992 14.8204C85.2112 14.8204 85.4942 14.7305 85.4942 14.0838V11.012H85.6986L87.2394 14.1557C87.5066 14.7126 87.7425 14.8204 88.6544 14.8204C89.5506 14.8204 89.8965 14.6228 89.8965 14.2814C89.8965 14.0479 89.8336 13.9222 89.6921 13.6707L87.8054 10.1677L89.4877 7.09581C89.5978 6.88024 89.6921 6.61078 89.6921 6.37725C89.6921 6.07186 89.4248 5.94611 88.5286 5.94611C87.4752 5.94611 87.2865 6.03593 87.0192 6.61078L85.6986 9.35928H85.4942V3.73653C85.4942 3.07186 85.2112 3 84.2992 3C83.4031 3 83.1043 3.07186 83.1043 3.73653V14.0838C83.1043 14.7305 83.4031 14.8204 84.2992 14.8204Z" fill="#901848"/>
</svg>
