<svg width="61" height="60" viewBox="0 0 61 60" fill="none" xmlns="http://www.w3.org/2000/svg">
<path fill-rule="evenodd" clip-rule="evenodd" d="M31.4851 32.1587C36.869 32.9876 37.5967 36.1648 38.0319 39.1219L38.1045 39.6261L38.1539 39.9692L38.416 41.7094C38.9289 45.0321 39.999 51.9291 39.999 55.5281C39.999 56.4276 39.9196 57.1179 39.7747 57.4972C39.5331 58.0819 38.8292 58.6429 37.8573 59.1105C35.5056 59.6878 33.0475 60 30.5156 60C30.2475 60 29.9837 59.9871 29.719 59.9792C28.6957 59.6893 27.9266 59.2054 27.5194 58.5441C26.2899 56.5479 26.2158 52.1006 26.1912 46.9035L26.1884 46.3007L26.1784 44.7429C26.1384 39.2411 26.104 34.4974 28.1082 32.7951C28.8845 32.1403 29.9875 31.9236 31.4851 32.1587ZM19.7468 44.1371C20.9135 44.0717 21.6638 49.7951 21.8146 54.1352C21.9203 57.1567 21.6022 58.3997 21.0942 58.8459C20.5191 58.6545 19.954 58.4473 19.3971 58.2223C19.0257 57.549 18.7417 56.49 18.5613 55.1029C18.0106 50.7437 18.489 44.214 19.7468 44.1371ZM48.9966 52.6901C48.9238 53.0876 48.8212 53.3947 48.6947 53.6539C47.6971 54.4523 46.6487 55.1852 45.5515 55.8446C45.202 55.9033 44.8916 55.8624 44.7399 55.6067C43.2857 53.0584 42.74 45.0641 44.1472 44.3683C45.9818 43.4844 49.2686 51.3081 48.9966 52.6901ZM30.0813 0C46.4629 0 59.7847 12.9387 60.152 29.0387L60.1596 29.5952V29.8524C60.1295 37.125 57.446 43.7786 53.025 48.9285C52.8647 48.8482 52.5721 48.5856 52.0422 47.7949C51.4938 47.0001 46.7645 39.7412 46.7645 31.4214C46.7645 29.7887 49.1242 27.2381 51.2123 24.9994C52.7733 23.3147 54.2519 21.7256 54.7963 20.4767C55.4899 18.8651 55.0046 17.7398 54.2372 17.3584C53.5426 17.0194 52.4997 17.2667 51.7679 18.5631C50.5669 20.6612 50.1821 21.0533 48.4303 22.4571C46.7066 23.8601 43.9661 25.2726 43.9661 23.4443C43.9661 22.4571 45.4925 20.2213 46.2465 18.6542C47.0166 17.0696 46.1866 15.9224 44.5965 15.9224C41.474 15.9224 39.4013 19.8894 39.4013 21.2638C39.4013 22.6371 40.0693 22.8326 40.0693 24.4318C40.0693 26.043 36.6434 28.1329 33.4162 28.1329C30.3091 28.1329 28.5074 27.5057 27.7608 25.7387L27.6655 25.4906L27.4497 24.8539C26.6842 22.6224 26.135 21.0041 25.179 19.3129C24.6714 18.4185 23.8882 17.7985 23.2109 17.2529C22.3256 16.5671 21.8663 15.9356 21.7704 15.4647C21.6821 14.9975 21.6345 14.117 23.1479 12.0872C24.6581 10.069 24.8698 8.54438 24.114 7.75768C23.8401 7.47782 23.3731 7.29851 22.7734 7.29851C21.7127 7.29851 20.2388 7.85904 18.7199 9.39872C16.3587 11.8118 17.6992 14.1028 17.6992 15.1085C17.6992 16.1136 17.2666 16.6821 15.8496 18.0495C14.4223 19.4229 13.9297 20.6004 13.7664 25.3329C13.7039 27.7714 13.2733 29.175 12.8868 30.4196C12.5528 31.5105 12.2456 32.5361 12.229 34.0179C12.2025 35.6601 12.4766 36.7183 12.7964 37.9393C13.1104 39.0679 13.444 40.3611 13.6576 42.5243C13.9975 45.8728 13.8793 48.7014 13.2614 51.5925L13.0965 52.3168L13.058 52.5249C12.9314 53.0331 12.781 53.6501 12.5777 53.8813C4.96459 48.4883 0 39.6806 0 29.7246C0 13.3096 13.4673 0 30.0813 0Z" fill="#F14635"/>
</svg>
