<svg width="87" height="21" viewBox="0 0 87 21" fill="none" xmlns="http://www.w3.org/2000/svg">
<path fill-rule="evenodd" clip-rule="evenodd" d="M10.3989 10.9928C12.1771 11.2665 12.4175 12.3159 12.5612 13.2926L12.5852 13.4591L12.6015 13.5724L12.6881 14.1472C12.8575 15.2446 13.2109 17.5226 13.2109 18.7113C13.2109 19.0083 13.1847 19.2363 13.1368 19.3616C13.0571 19.5547 12.8246 19.74 12.5036 19.8944C11.7268 20.0851 10.915 20.1882 10.0787 20.1882C9.99018 20.1882 9.90307 20.184 9.81564 20.1814C9.47767 20.0856 9.22365 19.9258 9.08916 19.7074C8.68308 19.0481 8.65861 17.5792 8.65048 15.8627L8.64955 15.6636L8.64625 15.1491C8.63303 13.332 8.62167 11.7652 9.28363 11.2029C9.54001 10.9867 9.90431 10.9151 10.3989 10.9928ZM6.52201 14.949C6.90735 14.9274 7.15517 16.8178 7.20496 18.2512C7.23986 19.2492 7.1348 19.6597 6.96703 19.8071C6.77708 19.7438 6.59044 19.6754 6.40652 19.6011C6.28382 19.3787 6.19004 19.0289 6.13047 18.5708C5.94857 17.131 6.10658 14.9744 6.52201 14.949ZM16.1827 17.7739C16.1586 17.9052 16.1247 18.0066 16.0829 18.0922C15.7535 18.3559 15.4072 18.598 15.0448 18.8158C14.9294 18.8352 14.8269 18.8217 14.7768 18.7372C14.2965 17.8955 14.1162 15.2552 14.581 15.0254C15.187 14.7334 16.2725 17.3174 16.1827 17.7739ZM9.93529 0.371338C15.3458 0.371338 19.7458 4.64474 19.8671 9.96228L19.8696 10.1461V10.231C19.8597 12.633 18.9734 14.8306 17.5132 16.5315C17.4602 16.505 17.3636 16.4183 17.1886 16.1571C17.0074 15.8946 15.4454 13.4971 15.4454 10.7493C15.4454 10.21 16.2248 9.36759 16.9145 8.62817C17.43 8.07175 17.9184 7.54691 18.0982 7.13441C18.3273 6.60214 18.167 6.23048 17.9136 6.1045C17.6841 5.99254 17.3397 6.07421 17.098 6.50238C16.7013 7.19535 16.5742 7.32484 15.9956 7.78849C15.4263 8.2519 14.5212 8.7184 14.5212 8.11454C14.5212 7.78849 15.0253 7.05007 15.2744 6.53247C15.5287 6.0091 15.2546 5.63022 14.7294 5.63022C13.6981 5.63022 13.0135 6.94045 13.0135 7.39438C13.0135 7.84794 13.2341 7.91253 13.2341 8.44072C13.2341 8.97286 12.1026 9.66311 11.0368 9.66311C10.0106 9.66311 9.41546 9.45596 9.16889 8.87235L9.13741 8.79042L9.06612 8.58011C8.81328 7.84311 8.63191 7.30861 8.31617 6.75002C8.14852 6.45463 7.88984 6.24985 7.66612 6.06966C7.37373 5.84315 7.22204 5.63459 7.19037 5.47904C7.16119 5.32473 7.14548 5.03391 7.64532 4.36351C8.14411 3.69695 8.21403 3.19339 7.96442 2.93356C7.87395 2.84112 7.71971 2.7819 7.52164 2.7819C7.17131 2.7819 6.6845 2.96704 6.18283 3.47556C5.40298 4.27254 5.8457 5.02923 5.8457 5.36141C5.8457 5.69336 5.70284 5.88113 5.23484 6.33276C4.76341 6.78638 4.60071 7.17528 4.5468 8.73834C4.52614 9.54371 4.38392 10.0073 4.25626 10.4184C4.14595 10.7787 4.04449 11.1174 4.03901 11.6068C4.03027 12.1492 4.12079 12.4987 4.22642 12.902C4.33014 13.2747 4.44029 13.7019 4.51086 14.4163C4.62312 15.5223 4.58409 16.4565 4.38 17.4114L4.32554 17.6506L4.31281 17.7194C4.27101 17.8872 4.22133 18.091 4.15418 18.1673C1.63971 16.3861 0 13.4771 0 10.1888C0 4.76724 4.44799 0.371338 9.93529 0.371338Z" fill="#F14635"/>
<path d="M57.8473 7.16522C58.8302 7.16522 59.5945 7.51239 60.1401 8.20672C60.6856 8.90106 60.9583 9.85549 60.9583 11.07V11.183C60.9583 12.3692 60.6794 13.3166 60.1217 14.025C59.5637 14.7335 58.8106 15.0877 57.862 15.0877C57.1297 15.0877 56.5276 14.8311 56.0558 14.3181V18.1731H53.5714V7.30648H55.8937L55.9674 8.01258C56.4441 7.44767 57.0707 7.16522 57.8473 7.16522ZM40.5233 7.16522C41.5407 7.16522 42.3442 7.40296 42.934 7.87838C43.5238 8.35386 43.826 9.00584 43.8408 9.83431V13.2166C43.8506 13.9179 43.9636 14.4546 44.1799 14.8264V14.9465H41.6955C41.607 14.7911 41.5284 14.5629 41.4596 14.2616C41.0025 14.8123 40.3636 15.0877 39.5428 15.0877C38.7908 15.0877 38.152 14.87 37.626 14.4346C37.1002 13.9991 36.8372 13.4519 36.8372 12.7928C36.8372 11.9644 37.1567 11.3383 37.7956 10.9146C38.4345 10.491 39.3634 10.2791 40.5823 10.2791H41.349V9.87667C41.349 9.17527 41.032 8.82458 40.398 8.82458C39.8082 8.82458 39.5133 9.10232 39.5133 9.65775H37.0289C37.0289 8.91871 37.3569 8.31856 38.0131 7.8572C38.6692 7.3959 39.5059 7.16522 40.5233 7.16522ZM48.6103 7.16522C49.662 7.16522 50.5073 7.39355 51.1462 7.85014C51.7852 8.3068 52.1046 8.90694 52.1046 9.65069H49.6129C49.6129 9.03878 49.2762 8.7328 48.6029 8.7328C48.3424 8.7328 48.1237 8.80222 47.9468 8.94106C47.7698 9.07997 47.6814 9.25293 47.6814 9.46008C47.6814 9.67193 47.7895 9.84372 48.0057 9.9755C48.222 10.1073 48.5672 10.2156 49.0415 10.3003C49.5158 10.3851 49.9323 10.4863 50.2912 10.6039C51.4904 10.9994 52.0899 11.7078 52.0899 12.7293C52.0899 13.426 51.7668 13.9933 51.1205 14.431C50.4742 14.8688 49.6375 15.0877 48.6103 15.0877C47.9271 15.0877 47.3177 14.97 46.782 14.7347C46.2463 14.4993 45.8285 14.1792 45.5287 13.7743C45.2289 13.3695 45.079 12.9435 45.079 12.4963H47.4013C47.4111 12.8493 47.5339 13.1071 47.7698 13.2695C48.0057 13.4319 48.3079 13.5131 48.6766 13.5131C49.0157 13.5131 49.2701 13.4472 49.4396 13.3154C49.6092 13.1835 49.6939 13.0118 49.6939 12.7999C49.6939 12.5975 49.5834 12.4351 49.3622 12.3127C49.141 12.1904 48.7208 12.0632 48.1016 11.9314C47.4824 11.7996 46.9712 11.6266 46.5682 11.4124C46.1652 11.1983 45.858 10.9382 45.6467 10.6322C45.4354 10.3262 45.3297 9.9755 45.3297 9.58009C45.3297 8.8787 45.6319 8.30091 46.2364 7.84661C46.8409 7.39237 47.6322 7.16522 48.6103 7.16522ZM29.9446 4.08722V9.19881L33.4608 4.08722H36.6603L32.7312 9.21292L36.3584 14.9465H33.2915L31.0062 11.1194L29.9446 12.2351V14.9465H27.3569V4.08722H29.9446ZM64.9757 7.30648V14.9465H62.484V7.30648H64.9757ZM86.8844 7.30648V8.59154L83.3315 13.1106H86.9658V14.9465H80.1909V13.619L83.7295 9.14233H79.5606L81.221 7.30648H86.8844ZM68.307 12.482C68.9869 12.482 69.537 13.0115 69.537 13.6646C69.537 14.3177 68.9869 14.8472 68.307 14.8472C67.6277 14.8472 67.0769 14.3177 67.0769 13.6646C67.0769 13.0115 67.6277 12.482 68.307 12.482ZM74.0766 4.08691V9.79288L74.3275 9.47822L76.2052 7.26852H79.1912L76.3902 10.3803L79.3762 14.8345H76.5231L74.7789 12.0165L74.0766 12.6808V14.8345H71.5855V4.08691H74.0766ZM41.349 11.5501H40.6265C39.7615 11.5501 39.329 11.922 39.329 12.6658C39.329 12.8823 39.4052 13.0576 39.5575 13.1918C39.7099 13.326 39.904 13.3931 40.14 13.3931C40.4496 13.3931 40.7064 13.3295 40.9104 13.2024C41.1143 13.0753 41.2605 12.9318 41.349 12.7717V11.5501ZM57.2354 9.00113C56.6457 9.00113 56.2524 9.20351 56.0558 9.60833V12.6164C56.272 13.04 56.6702 13.2519 57.2501 13.2519C58.0414 13.2519 58.4493 12.5975 58.4738 11.2889V11.0347C58.4738 9.67899 58.0611 9.00113 57.2354 9.00113ZM63.7637 4.08691C64.443 4.08691 64.9937 4.64156 64.9937 5.32578C64.9937 6.00999 64.443 6.56465 63.7637 6.56465C63.0844 6.56465 62.5336 6.00999 62.5336 5.32578C62.5336 4.64156 63.0844 4.08691 63.7637 4.08691Z" fill="black"/>
</svg>
